<svg xmlns="http://www.w3.org/2000/svg" viewBox="0 0 222.67 75.33"><defs><style>.cls-1{fill:#0091b9;}.cls-2{fill:#fee28f;}</style></defs><title>Ресурс 1</title><g id="Слой_2" data-name="Слой 2"><g id="Layer_1" data-name="Layer 1"><path class="cls-1" d="M14.73,31.62c0,1.69,0,3,.15,3.95a4.63,4.63,0,0,0,.68,2.17,2.51,2.51,0,0,0,1.51,1,15.94,15.94,0,0,0,2.72.37v2H1.63v-2a15.79,15.79,0,0,0,2.72-.37,2.51,2.51,0,0,0,1.51-1,4.63,4.63,0,0,0,.68-2.17,36.43,36.43,0,0,0,.16-3.95V10.38a36.89,36.89,0,0,0-.16-3.93,4.68,4.68,0,0,0-.68-2.19,2.56,2.56,0,0,0-1.51-1A18.07,18.07,0,0,0,1.63,2.9v-2H19.79v2a18.26,18.26,0,0,0-2.72.37,2.56,2.56,0,0,0-1.51,1,4.68,4.68,0,0,0-.68,2.19q-.15,1.45-.15,3.93Z"/><path class="cls-1" d="M60.68,41.5H56.91L32.45,11.36h-.12V24.15q0,4.88.21,7.63c.15,1.83.28,3.22.41,4.17a3,3,0,0,0,1.54,2.31,10.66,10.66,0,0,0,4.38.83v2H23.56v-2a7.59,7.59,0,0,0,3.49-.83A3.12,3.12,0,0,0,28.44,36c.12-1,.25-2.34.4-4.17s.21-4.38.21-7.63V11.92c0-1,0-1.83,0-2.53S29,8.07,28.9,7.54a6.1,6.1,0,0,0-.31-1.39A4,4,0,0,0,27.94,5a4.47,4.47,0,0,0-2.1-1.54,12.23,12.23,0,0,0-3.15-.56v-2H33.44L57.28,28.72h.12V17.85c0-3.25-.07-5.8-.21-7.63s-.28-3.22-.4-4.17a3,3,0,0,0-1.55-2.31,10.67,10.67,0,0,0-4.38-.84v-2H66.17v2a7.54,7.54,0,0,0-3.49.84,3.12,3.12,0,0,0-1.39,2.31c-.12,1-.25,2.34-.4,4.17s-.21,4.38-.21,7.63Z"/><path class="cls-1" d="M87.79.93a36.65,36.65,0,0,1,9.88,1.26,18.29,18.29,0,0,1,7.66,4.23,18.53,18.53,0,0,1,3.73,5.41,16.92,16.92,0,0,1,1.58,7.44,22,22,0,0,1-2,9.82A18.56,18.56,0,0,1,103,35.88a23.9,23.9,0,0,1-8.34,3.92,39.52,39.52,0,0,1-10.22,1.27H68.83v-2a17.68,17.68,0,0,0,2.84-.37,2.67,2.67,0,0,0,1.6-1A4.4,4.4,0,0,0,74,35.57a36.43,36.43,0,0,0,.16-3.95V10.38A36.89,36.89,0,0,0,74,6.45a5,5,0,0,0-.64-2.19,2.44,2.44,0,0,0-1.46-1,16.64,16.64,0,0,0-2.56-.37v-2ZM82.17,31.25a27,27,0,0,0,.18,3.49A5.56,5.56,0,0,0,83,36.87,2.8,2.8,0,0,0,84.58,38a9,9,0,0,0,2.65.31,14.07,14.07,0,0,0,6-1.23,12.9,12.9,0,0,0,4.54-3.52,15.93,15.93,0,0,0,2.87-5.47,23.73,23.73,0,0,0,1-7.07,25.45,25.45,0,0,0-1.17-8.34,13.64,13.64,0,0,0-3.27-5.37,12.29,12.29,0,0,0-4.91-2.84,20.78,20.78,0,0,0-6.15-.87,16.13,16.13,0,0,0-2.28.13A3.83,3.83,0,0,0,82.6,4c-.21.13-.33.49-.37,1.09s-.06,1.3-.06,2.13Z"/><path class="cls-1" d="M128.24,31.62c0,1.69,0,3,.15,3.95a4.75,4.75,0,0,0,.68,2.17,2.53,2.53,0,0,0,1.52,1,15.8,15.8,0,0,0,2.71.37v2H115.15v-2a15.94,15.94,0,0,0,2.72-.37,2.53,2.53,0,0,0,1.51-1,4.75,4.75,0,0,0,.68-2.17c.1-.94.15-2.26.15-3.95V10.38q0-2.48-.15-3.93a4.8,4.8,0,0,0-.68-2.19,2.59,2.59,0,0,0-1.51-1,18.26,18.26,0,0,0-2.72-.37v-2H133.3v2a18.1,18.1,0,0,0-2.71.37,2.59,2.59,0,0,0-1.52,1,4.8,4.8,0,0,0-.68,2.19q-.15,1.45-.15,3.93Z"/><path class="cls-1" d="M172.09,12a13.39,13.39,0,0,0-1.82-4.69,9.93,9.93,0,0,0-2.78-2.81,9.83,9.83,0,0,0-3.37-1.39,17.7,17.7,0,0,0-3.64-.37A12.56,12.56,0,0,0,155,4a12.18,12.18,0,0,0-4.26,3.43,17,17,0,0,0-2.81,5.5,24.56,24.56,0,0,0-1,7.38,31.39,31.39,0,0,0,.78,7,18.27,18.27,0,0,0,2.5,6.05,13.06,13.06,0,0,0,4.51,4.26,13.23,13.23,0,0,0,6.73,1.61,11.69,11.69,0,0,0,1.79-.13,3.33,3.33,0,0,0,1.48-.55,3.07,3.07,0,0,0,1-1.21,4.75,4.75,0,0,0,.37-2.06V29.71a16.06,16.06,0,0,0-.15-2.47,2.19,2.19,0,0,0-.81-1.42,4.8,4.8,0,0,0-2-.75c-.9-.16-2.16-.3-3.76-.43V22.42h18.16v2.22a14.61,14.61,0,0,0-1.86.4,2,2,0,0,0-1,.71,3.14,3.14,0,0,0-.43,1.42c-.06.62-.09,1.47-.09,2.54v4.2q0,1.67.06,3.12a13.1,13.1,0,0,0,.31,2.5c-1.85.53-4,1.08-6.33,1.63A30.93,30.93,0,0,1,161,42a29.63,29.63,0,0,1-9.55-1.46,20.93,20.93,0,0,1-7.32-4.13,18.5,18.5,0,0,1-4.69-6.49,20.92,20.92,0,0,1-1.67-8.49,21.06,21.06,0,0,1,1.95-9.32A19.49,19.49,0,0,1,145,5.4a22.53,22.53,0,0,1,7.56-4,29.48,29.48,0,0,1,9-1.36,38.72,38.72,0,0,1,7,.59c2.1.39,3.68.73,4.76,1,.08,1.07.2,2.43.37,4.07s.37,3.71.61,6.18Z"/><path class="cls-1" d="M202.91,0a19.83,19.83,0,0,1,7.75,1.51,19.09,19.09,0,0,1,6.27,4.2,19.8,19.8,0,0,1,4.2,6.43,21.37,21.37,0,0,1,1.54,8.24,23.69,23.69,0,0,1-1.6,8.86,20.35,20.35,0,0,1-4.45,6.83,19.79,19.79,0,0,1-6.73,4.38A22.77,22.77,0,0,1,201.43,42a20.84,20.84,0,0,1-8.31-1.61A19.13,19.13,0,0,1,186.76,36a19.62,19.62,0,0,1-4.08-6.46,21.57,21.57,0,0,1-1.45-8,23.54,23.54,0,0,1,1.3-7.57,20.94,20.94,0,0,1,3.95-7A20.2,20.2,0,0,1,193.21,2,22,22,0,0,1,202.91,0Zm10.62,22.36q0-9.27-3.12-14.42a10,10,0,0,0-9.11-5.16A8.58,8.58,0,0,0,196.89,4a10.57,10.57,0,0,0-3.46,3.37,17.41,17.41,0,0,0-2.26,5.37,29.75,29.75,0,0,0-.8,7.2,34.16,34.16,0,0,0,.8,7.53,21,21,0,0,0,2.38,6.15,12.61,12.61,0,0,0,3.89,4.14,9.76,9.76,0,0,0,5.41,1.51,9.1,9.1,0,0,0,7.72-4.14Q213.52,30.94,213.53,22.36Z"/><polygon class="cls-2" points="0 53.68 0 52.9 220.59 52.9 220.59 53.68 0 53.68 0 53.68"/><path class="cls-2" d="M4.83,63.2h.43l3.43,8.74a.81.81,0,0,0,.84.53h.3V73H6v-.48h.3a1.87,1.87,0,0,0,.84-.13.3.3,0,0,0,.17-.28.68.68,0,0,0,0-.23l-.79-2H2.71L2.27,71a2.15,2.15,0,0,0-.17.74.65.65,0,0,0,.29.54,1.4,1.4,0,0,0,.86.23h.32V73H.11v-.48A1.41,1.41,0,0,0,1,72.23a2.15,2.15,0,0,0,.6-.92ZM4.64,65,2.92,69.3H6.3Z"/><path class="cls-2" d="M10.91,63.4h7.38l.13,3.29H18A3.68,3.68,0,0,0,17,64.37a2.59,2.59,0,0,0-1.63-.49H14a.37.37,0,0,0-.42.43v7.57a.57.57,0,0,0,.16.47.9.9,0,0,0,.53.12h1V73H10.91v-.48h.77c.37,0,.55-.17.55-.51v-7.6c0-.32-.19-.48-.59-.48h-.73Z"/><path class="cls-2" d="M19.89,63.4h7.57l.18,3.22h-.43a4.24,4.24,0,0,0-.82-2.13,1.85,1.85,0,0,0-1.45-.61H23.07a.48.48,0,0,0-.35.12.59.59,0,0,0-.11.38v3.4h.82a1.32,1.32,0,0,0,1.06-.47,2.21,2.21,0,0,0,.44-1.44h.45v4.42h-.45a2.51,2.51,0,0,0-.44-1.57,1.43,1.43,0,0,0-1.13-.48h-.75V72a.36.36,0,0,0,.14.32.75.75,0,0,0,.46.11h1.48c1.6,0,2.53-1,2.77-3.08h.47L27.76,73H19.89v-.48h.65a.93.93,0,0,0,.54-.13.5.5,0,0,0,.15-.39V64.38A.5.5,0,0,0,21.1,64a.65.65,0,0,0-.43-.12h-.78Z"/><path class="cls-2" d="M29.73,63.4h4.08v.48h-.75a.69.69,0,0,0-.51.14,1.2,1.2,0,0,0-.12.68v2.94H36.8V64.7a1.22,1.22,0,0,0-.12-.69c-.07-.09-.25-.13-.53-.13h-.7V63.4h4.06v.48h-.74a.92.92,0,0,0-.4.07.56.56,0,0,0-.18.25,2.11,2.11,0,0,0,0,.57v6.88a1.16,1.16,0,0,0,.09.6.71.71,0,0,0,.61.22h.66V73H35.45v-.48h.7a.62.62,0,0,0,.56-.23,1.33,1.33,0,0,0,.09-.64V68.28H32.43v3.37a1.17,1.17,0,0,0,.08.6.62.62,0,0,0,.55.22h.75V73H29.73v-.48h.78a.54.54,0,0,0,.33-.09.47.47,0,0,0,.18-.23,2.89,2.89,0,0,0,0-.55V64.7a1.2,1.2,0,0,0-.12-.68.7.7,0,0,0-.52-.14h-.68Z"/><path class="cls-2" d="M48.32,64.14l.44-.92h.41l.17,3.84H48.9a6.15,6.15,0,0,0-1.07-2.39,2.41,2.41,0,0,0-1.91-1,2.31,2.31,0,0,0-2,1.07,6.59,6.59,0,0,0-.75,3.63,5.28,5.28,0,0,0,.86,3.28,2.46,2.46,0,0,0,2.07,1,2.73,2.73,0,0,0,2-.75,3.82,3.82,0,0,0,1-2.25h.46a4.19,4.19,0,0,1-1.17,2.62,3.39,3.39,0,0,1-2.45.92,4.19,4.19,0,0,1-2.19-.6,4.33,4.33,0,0,1-1.6-1.73,5.27,5.27,0,0,1-.59-2.47,6,6,0,0,1,.61-2.68,4.64,4.64,0,0,1,1.58-1.88,3.73,3.73,0,0,1,2.08-.63,3.53,3.53,0,0,1,1.2.21A5.16,5.16,0,0,1,48.32,64.14Z"/><path class="cls-2" d="M51.31,63.4h7.76L59.26,67h-.45c-.29-2.12-1.06-3.19-2.3-3.19A.84.84,0,0,0,56,64a.58.58,0,0,0-.14.43V72a.42.42,0,0,0,.14.34.74.74,0,0,0,.45.11h1V73H53v-.48h1.1a.47.47,0,0,0,.33-.11.37.37,0,0,0,.12-.29V64.32a.45.45,0,0,0-.15-.37.76.76,0,0,0-.48-.13,1.87,1.87,0,0,0-1.56.89,5.47,5.47,0,0,0-.74,2.3h-.47Z"/><path class="cls-2" d="M60.71,63.4h5a3.45,3.45,0,0,1,2.25.64,2,2,0,0,1,.78,1.62A1.87,1.87,0,0,1,68.17,67a3.65,3.65,0,0,1-1.63.9,4.27,4.27,0,0,1,2,.9,2,2,0,0,1,.68,1.54,2.2,2.2,0,0,1-.38,1.26,2.9,2.9,0,0,1-1.28.93,5.08,5.08,0,0,1-2,.38H60.71v-.48h.79a.89.89,0,0,0,.52-.12.32.32,0,0,0,.16-.26V64.43A.5.5,0,0,0,62,64a.71.71,0,0,0-.47-.14h-.84Zm2.86,4.38h1.81a1.78,1.78,0,0,0,1.32-.49,2.17,2.17,0,0,0,.5-1.6A2.06,2.06,0,0,0,67,64.61a1.26,1.26,0,0,0-.68-.56,4.68,4.68,0,0,0-1.56-.18,2.59,2.59,0,0,0-1,.11.44.44,0,0,0-.18.4Zm0,.49V72a.5.5,0,0,0,.15.39.82.82,0,0,0,.54.13h1.16a2.43,2.43,0,0,0,1.7-.51,2,2,0,0,0,.55-1.58,2.1,2.1,0,0,0-.57-1.55,2.15,2.15,0,0,0-1.57-.56Z"/><path class="cls-2" d="M75.24,63.2a4.33,4.33,0,0,1,2.26.63,4.5,4.5,0,0,1,1.65,1.78,5.44,5.44,0,0,1,.6,2.57,5.51,5.51,0,0,1-.6,2.58,4.53,4.53,0,0,1-1.65,1.79,4.18,4.18,0,0,1-2.23.64,4,4,0,0,1-2.15-.63,4.44,4.44,0,0,1-1.62-1.8,5.51,5.51,0,0,1-.61-2.6,5.32,5.32,0,0,1,.59-2.54,4.43,4.43,0,0,1,1.62-1.78A3.93,3.93,0,0,1,75.24,63.2Zm.1.49a2.43,2.43,0,0,0-2,1,5.81,5.81,0,0,0-.78,3.41,5.78,5.78,0,0,0,.8,3.55,2.54,2.54,0,0,0,3.43.54,3,3,0,0,0,1-1.42,7.18,7.18,0,0,0,.37-2.54,8,8,0,0,0-.35-2.69,2.92,2.92,0,0,0-1-1.43A2.41,2.41,0,0,0,75.34,63.69Z"/><path class="cls-2" d="M85.82,63.4H89.9v.48h-.75a.69.69,0,0,0-.51.14,1.2,1.2,0,0,0-.12.68v2.94h4.37V64.7a1.22,1.22,0,0,0-.12-.69c-.07-.09-.25-.13-.53-.13h-.7V63.4H95.6v.48h-.74a.92.92,0,0,0-.4.07.56.56,0,0,0-.18.25,2.11,2.11,0,0,0,0,.57v6.88a1.16,1.16,0,0,0,.09.6.71.71,0,0,0,.61.22h.66V73H91.54v-.48h.7a.62.62,0,0,0,.56-.23,1.33,1.33,0,0,0,.09-.64V68.28H88.52v3.37a1.17,1.17,0,0,0,.08.6.62.62,0,0,0,.55.22h.75V73H85.82v-.48h.78a.54.54,0,0,0,.33-.09.47.47,0,0,0,.18-.23,2.89,2.89,0,0,0,0-.55V64.7A1.2,1.2,0,0,0,87,64a.7.7,0,0,0-.52-.14h-.68Z"/><path class="cls-2" d="M97.61,63.4h7.58l.18,3.22h-.44a4.25,4.25,0,0,0-.81-2.13,1.87,1.87,0,0,0-1.46-.61h-1.87a.45.45,0,0,0-.34.12.54.54,0,0,0-.12.38v3.4h.82a1.33,1.33,0,0,0,1.07-.47,2.26,2.26,0,0,0,.44-1.44h.45v4.42h-.45a2.45,2.45,0,0,0-.45-1.57,1.42,1.42,0,0,0-1.13-.48h-.75V72a.39.39,0,0,0,.14.32.8.8,0,0,0,.46.11h1.48c1.61,0,2.53-1,2.78-3.08h.46L105.49,73H97.61v-.48h.66a.87.87,0,0,0,.53-.13A.47.47,0,0,0,99,72V64.38a.51.51,0,0,0-.14-.38.62.62,0,0,0-.42-.12h-.79Z"/><path class="cls-2" d="M116.71,72.47v2.86h-.49a4.36,4.36,0,0,0-.27-1.26,1.56,1.56,0,0,0-.92-.83A3.81,3.81,0,0,0,113.6,73h-3.79a3,3,0,0,0-1.76.49,2.19,2.19,0,0,0-.73,1.86h-.49l.1-2.88a2.82,2.82,0,0,0,1.31-.29,3,3,0,0,0,1-1.22,6.42,6.42,0,0,0,.7-2.23,21.84,21.84,0,0,0,.19-3,2.4,2.4,0,0,0-.32-1.44,1.1,1.1,0,0,0-.93-.4h-.13V63.4h8v.48H116a.59.59,0,0,0-.49.16,1.39,1.39,0,0,0-.12.73v6.88c0,.55.25.82.76.82Zm-2.69,0V63.88h-1.64a2,2,0,0,0-1.11.23,1,1,0,0,0-.39.64,12.64,12.64,0,0,0-.14,1.78,11.35,11.35,0,0,1-.77,4.18,3.13,3.13,0,0,1-1.54,1.71Z"/><path class="cls-2" d="M118.48,63.4h5a3.45,3.45,0,0,1,2.25.64,2,2,0,0,1,.78,1.62,1.87,1.87,0,0,1-.55,1.38,3.65,3.65,0,0,1-1.63.9,4.27,4.27,0,0,1,2,.9,2,2,0,0,1,.68,1.54,2.2,2.2,0,0,1-.38,1.26,2.9,2.9,0,0,1-1.28.93,5.08,5.08,0,0,1-2,.38h-4.83v-.48h.79a.89.89,0,0,0,.52-.12.33.33,0,0,0,.17-.26V64.43a.51.51,0,0,0-.17-.41.69.69,0,0,0-.47-.14h-.84Zm2.86,4.38h1.81a1.77,1.77,0,0,0,1.32-.49,2.17,2.17,0,0,0,.5-1.6,2.06,2.06,0,0,0-.24-1.08,1.26,1.26,0,0,0-.68-.56,4.68,4.68,0,0,0-1.56-.18,2.48,2.48,0,0,0-1,.11.43.43,0,0,0-.19.4Zm0,.49V72a.5.5,0,0,0,.15.39.83.83,0,0,0,.55.13h1.15a2.42,2.42,0,0,0,1.7-.51,2,2,0,0,0,.55-1.58,2.1,2.1,0,0,0-.57-1.55,2.15,2.15,0,0,0-1.57-.56Z"/><path class="cls-2" d="M131.26,70.59l4.54-5.93V64.5a.7.7,0,0,0-.13-.5.75.75,0,0,0-.51-.12h-.7V63.4h4v.48h-.71a.75.75,0,0,0-.45.12c-.11.07-.16.33-.16.77v6.88a2,2,0,0,0,0,.53.37.37,0,0,0,.22.2.93.93,0,0,0,.44.09h.62V73h-4v-.48h.7c.27,0,.45-.06.52-.18a1.31,1.31,0,0,0,.12-.69V65.54l-4.54,6c0,.26,0,.45,0,.55a.39.39,0,0,0,.18.28.82.82,0,0,0,.44.11h.75V73h-4.08v-.48h.78a.46.46,0,0,0,.43-.18,1.34,1.34,0,0,0,.11-.69V64.7a1.23,1.23,0,0,0-.11-.67c-.07-.1-.25-.15-.53-.15h-.68V63.4h4.08v.48h-.75a.67.67,0,0,0-.51.14,1.22,1.22,0,0,0-.12.68Z"/><path class="cls-2" d="M147.08,67.77h.84a1.67,1.67,0,0,0,.88-.19,1,1,0,0,0,.41-.49,5.72,5.72,0,0,0,.24-1.18,14.56,14.56,0,0,1,.3-1.61,1.57,1.57,0,0,1,.54-.79,1.52,1.52,0,0,1,1-.31,1.65,1.65,0,0,1,1,.33,1.11,1.11,0,0,1,.43.94.94.94,0,0,1-.25.72.8.8,0,0,1-.58.24.84.84,0,0,1-.57-.21.71.71,0,0,1-.23-.51,1,1,0,0,1,.11-.41.4.4,0,0,0,.07-.2.34.34,0,0,0-.11-.25.4.4,0,0,0-.28-.1.66.66,0,0,0-.51.35,5.34,5.34,0,0,0-.42,1.84,3.61,3.61,0,0,1-.44,1.56,1.07,1.07,0,0,1-.86.41,3.21,3.21,0,0,1,1.19.38,2.15,2.15,0,0,1,.78.83,7.34,7.34,0,0,1,.57,1.69c.21.93.47,1.39.77,1.39s.53-.44.58-1.32H153c-.06,1.47-.6,2.21-1.63,2.21a1.31,1.31,0,0,1-1-.42,3,3,0,0,1-.52-1.53,11.63,11.63,0,0,0-.35-1.92,1.25,1.25,0,0,0-.57-.73,2.32,2.32,0,0,0-1.16-.23h-.67V72c0,.31.2.46.6.46h.69V73h-4v-.48h.69c.41,0,.61-.15.61-.46V68.26H145a2.18,2.18,0,0,0-1.07.22,1.26,1.26,0,0,0-.56.71,11.43,11.43,0,0,0-.36,2,4.48,4.48,0,0,1-.24,1.1,1.35,1.35,0,0,1-.49.6,1.27,1.27,0,0,1-.8.25c-1,0-1.58-.74-1.64-2.21h.44q.08,1.32.57,1.32c.31,0,.57-.46.79-1.39a6.83,6.83,0,0,1,.56-1.69,2.12,2.12,0,0,1,.78-.82,3,3,0,0,1,1.2-.39,1,1,0,0,1-.87-.4,3.71,3.71,0,0,1-.43-1.53,6,6,0,0,0-.44-1.88c-.16-.24-.32-.35-.49-.35a.4.4,0,0,0-.28.1.34.34,0,0,0-.11.24.48.48,0,0,0,.06.21,1,1,0,0,1,.11.41.68.68,0,0,1-.24.51.79.79,0,0,1-.55.21.82.82,0,0,1-.59-.24.93.93,0,0,1-.25-.71,1.12,1.12,0,0,1,.44-1,1.64,1.64,0,0,1,1-.33,1.58,1.58,0,0,1,1,.3,1.54,1.54,0,0,1,.54.78,11.88,11.88,0,0,1,.31,1.63,7.56,7.56,0,0,0,.23,1.17.91.91,0,0,0,.41.5,1.42,1.42,0,0,0,.79.19h.86V64.34c0-.3-.2-.46-.61-.46h-.69V63.4h4v.48h-.69c-.4,0-.6.16-.6.46Z"/><path class="cls-2" d="M157.06,70.59l4.53-5.93V64.5a.7.7,0,0,0-.12-.5.77.77,0,0,0-.52-.12h-.69V63.4h4v.48h-.71a.75.75,0,0,0-.45.12c-.11.07-.16.33-.16.77v6.88a2,2,0,0,0,0,.53.37.37,0,0,0,.22.2.91.91,0,0,0,.43.09h.63V73h-4v-.48H161c.28,0,.46-.06.53-.18a1.34,1.34,0,0,0,.11-.69V65.54l-4.53,6c0,.26,0,.45,0,.55a.39.39,0,0,0,.18.28.82.82,0,0,0,.44.11h.75V73h-4.08v-.48h.78a.47.47,0,0,0,.43-.18,1.46,1.46,0,0,0,.11-.69V64.7a1.23,1.23,0,0,0-.11-.67c-.07-.1-.25-.15-.53-.15h-.68V63.4h4.08v.48h-.75a.7.7,0,0,0-.52.14,1.35,1.35,0,0,0-.11.68Z"/><path class="cls-2" d="M165.65,63.4h3.18l2.86,7.54,2.63-7.54h3.25v.48h-.79a1,1,0,0,0-.57.12.54.54,0,0,0-.14.43V72a.4.4,0,0,0,.17.35,1.12,1.12,0,0,0,.6.12h.73V73H173.2v-.48H174a.88.88,0,0,0,.52-.13.41.41,0,0,0,.17-.34V63.88L171.54,73h-.43l-3.4-9v7a2.16,2.16,0,0,0,.15.92,1,1,0,0,0,.44.47,2.2,2.2,0,0,0,1,.21V73h-3.61v-.48a1.9,1.9,0,0,0,1.2-.38,1.65,1.65,0,0,0,.32-1.15V64.35A.4.4,0,0,0,167,64a.93.93,0,0,0-.56-.12h-.81Z"/><path class="cls-2" d="M183.51,63.2a4.37,4.37,0,0,1,2.27.63,4.5,4.5,0,0,1,1.65,1.78,5.44,5.44,0,0,1,.6,2.57,5.51,5.51,0,0,1-.6,2.58,4.53,4.53,0,0,1-1.65,1.79,4.18,4.18,0,0,1-2.23.64,4,4,0,0,1-2.16-.63,4.49,4.49,0,0,1-1.61-1.8,5.51,5.51,0,0,1-.62-2.6,5.32,5.32,0,0,1,.6-2.54,4.48,4.48,0,0,1,1.61-1.78A4,4,0,0,1,183.51,63.2Zm.11.49a2.43,2.43,0,0,0-2,1,5.73,5.73,0,0,0-.79,3.41,5.85,5.85,0,0,0,.8,3.55,2.55,2.55,0,0,0,3.44.54,3,3,0,0,0,1-1.42,7.18,7.18,0,0,0,.37-2.54,8,8,0,0,0-.35-2.69,2.92,2.92,0,0,0-1-1.43A2.41,2.41,0,0,0,183.62,63.69Z"/><path class="cls-2" d="M196.93,64.14l.44-.92h.41l.17,3.84h-.44a6.15,6.15,0,0,0-1.07-2.39,2.41,2.41,0,0,0-1.91-1,2.32,2.32,0,0,0-2,1.07,6.59,6.59,0,0,0-.75,3.63,5.28,5.28,0,0,0,.86,3.28,2.46,2.46,0,0,0,2.07,1,2.73,2.73,0,0,0,1.95-.75,3.82,3.82,0,0,0,1-2.25h.46A4.19,4.19,0,0,1,197,72.27a3.39,3.39,0,0,1-2.45.92,4.19,4.19,0,0,1-2.19-.6,4.33,4.33,0,0,1-1.6-1.73,5.27,5.27,0,0,1-.59-2.47,6,6,0,0,1,.61-2.68,4.64,4.64,0,0,1,1.58-1.88,3.76,3.76,0,0,1,2.08-.63,3.53,3.53,0,0,1,1.2.21A5.16,5.16,0,0,1,196.93,64.14Z"/><path class="cls-2" d="M199.92,63.4h7.76l.19,3.61h-.45c-.29-2.12-1.06-3.19-2.3-3.19a.84.84,0,0,0-.52.13.58.58,0,0,0-.14.43V72a.42.42,0,0,0,.14.34.74.74,0,0,0,.45.11h1V73h-4.44v-.48h1.1a.45.45,0,0,0,.33-.11.37.37,0,0,0,.12-.29V64.32A.45.45,0,0,0,203,64a.75.75,0,0,0-.47-.13,1.87,1.87,0,0,0-1.57.89,5.47,5.47,0,0,0-.74,2.3h-.47Z"/><path class="cls-2" d="M212,70.59l4.53-5.93V64.5a.7.7,0,0,0-.12-.5.77.77,0,0,0-.52-.12h-.7V63.4h4v.48h-.71a.73.73,0,0,0-.45.12c-.11.07-.16.33-.16.77v6.88a2,2,0,0,0,0,.53.38.38,0,0,0,.21.2,1,1,0,0,0,.44.09h.63V73h-4v-.48h.7c.28,0,.45-.06.53-.18a1.46,1.46,0,0,0,.11-.69V65.54l-4.53,6c0,.26,0,.45,0,.55a.39.39,0,0,0,.18.28.79.79,0,0,0,.44.11h.75V73h-4.08v-.48h.78a.47.47,0,0,0,.43-.18,1.46,1.46,0,0,0,.11-.69V64.7a1.33,1.33,0,0,0-.11-.67c-.07-.1-.25-.15-.53-.15h-.68V63.4h4.08v.48h-.75a.7.7,0,0,0-.52.14,1.35,1.35,0,0,0-.11.68Z"/></g></g></svg>